<svg xmlns="http://www.w3.org/2000/svg" width="256" height="256" viewBox="0 0 256 256"><defs><linearGradient id="g86" x1="0" y1="0" x2="0" y2="1"><stop offset="0" stop-color="#3A3150" stop-opacity="1"/><stop offset="1" stop-color="#0E0A18" stop-opacity="1"/></linearGradient><linearGradient id="g87" x1="0" y1="0" x2="0" y2="1"><stop offset="0" stop-color="#FFFFFF" stop-opacity="1"/><stop offset="1" stop-color="#C9CFE8" stop-opacity="1"/></linearGradient><linearGradient id="g88" x1="0" y1="0" x2="0" y2="1"><stop offset="0" stop-color="#FFFFFF" stop-opacity="1"/><stop offset="1" stop-color="#DDE2F4" stop-opacity="1"/></linearGradient><linearGradient id="g89" x1="0" y1="0" x2="0" y2="1"><stop offset="0" stop-color="#FF4D4D" stop-opacity="1"/><stop offset="1" stop-color="#8E0A1E" stop-opacity="1"/></linearGradient><linearGradient id="g90" x1="0" y1="0" x2="0" y2="1"><stop offset="0" stop-color="#FF4D4D" stop-opacity="1"/><stop offset="1" stop-color="#8E0A1E" stop-opacity="1"/></linearGradient></defs><path d="M72 96 Q50 132 62 170 Q70 192 56 210 Q88 212 94 188 L162 188 Q168 212 200 210 Q186 192 194 170 Q206 132 184 96 Z" fill="url(#g86)" stroke="#1B1036" stroke-width="10" stroke-linejoin="round" stroke-linecap="round" paint-order="stroke" /><path d="M20 256 Q26 212 92 200 L164 200 Q230 212 236 256 Z" fill="#22223A" stroke="#1B1036" stroke-width="9" stroke-linejoin="round" stroke-linecap="round" paint-order="stroke" /><path d="M100 200 L128 244 L156 200 Z" fill="#FFFFFF" stroke="#1B1036" stroke-width="6" stroke-linejoin="round" stroke-linecap="round" paint-order="stroke" /><path d="M122 212 L134 212 L138 250 L128 256 L118 250 Z" fill="#9A1030" stroke="#1B1036" stroke-width="5" stroke-linejoin="round" stroke-linecap="round" paint-order="stroke" /><path d="M20 256 Q26 212 92 200 L106 204 L118 256 Z" fill="#2E2E4A" stroke="#1B1036" stroke-width="7" stroke-linejoin="round" stroke-linecap="round" paint-order="stroke" /><path d="M236 256 Q230 212 164 200 L150 204 L138 256 Z" fill="#2E2E4A" stroke="#1B1036" stroke-width="7" stroke-linejoin="round" stroke-linecap="round" paint-order="stroke" /><path d="M108 176 L148 176 L148 214 L108 214 Z" fill="#E8CFC6" stroke="#1B1036" stroke-width="8" stroke-linejoin="round" stroke-linecap="round" paint-order="stroke" /><ellipse cx="80" cy="134" rx="11" ry="15" fill="#FFF1EA" stroke="#1B1036" stroke-width="7"/><ellipse cx="176" cy="134" rx="11" ry="15" fill="#FFF1EA" stroke="#1B1036" stroke-width="7"/><path d="M80 110 Q80 62 128 62 Q176 62 176 110 L175 138 Q170 184 128 198 Q86 184 81 138 Z" fill="#FFF1EA" stroke="#1B1036" stroke-width="9" stroke-linejoin="round" stroke-linecap="round" paint-order="stroke" /><path d="M86 150 Q90 180 128 194 Q166 180 170 150 Q160 176 128 186 Q96 176 86 150 Z" fill="#E8CFC6" opacity="0.6"/><ellipse cx="108" cy="142" rx="12.5" ry="11" fill="#FFFFFF"/><ellipse cx="109" cy="144" rx="9.5" ry="10.2" fill="url(#g89)"/><ellipse cx="109" cy="144" rx="2.2" ry="9" fill="#1B1036"/><circle cx="105" cy="141" r="3.6" fill="#FFFFFF"/><circle cx="112" cy="150" r="1.8" fill="#FFFFFF"/><path d="M93 133 Q108 125 123 134" fill="none" stroke="#1B1036" stroke-width="6" stroke-linecap="round"/><ellipse cx="148" cy="142" rx="12.5" ry="11" fill="#FFFFFF"/><ellipse cx="147" cy="144" rx="9.5" ry="10.2" fill="url(#g90)"/><ellipse cx="147" cy="144" rx="2.2" ry="9" fill="#1B1036"/><circle cx="151" cy="141" r="3.6" fill="#FFFFFF"/><circle cx="144" cy="150" r="1.8" fill="#FFFFFF"/><path d="M163 133 Q148 125 133 134" fill="none" stroke="#1B1036" stroke-width="6" stroke-linecap="round"/><path d="M94 124 L120 122" stroke="#1B1036" stroke-width="5" stroke-linecap="round"/><path d="M162 124 L136 122" stroke="#1B1036" stroke-width="5" stroke-linecap="round"/><ellipse cx="94" cy="162" rx="8" ry="4.5" fill="#FF8FA8" opacity="0"/><ellipse cx="162" cy="162" rx="8" ry="4.5" fill="#FF8FA8" opacity="0"/><path d="M118 172 Q128 168 138 172" fill="none" stroke="#9A1030" stroke-width="5" stroke-linecap="round"/><path d="M80 126 Q74 94 96 90 Q86 110 98 120 Q98 100 116 94 Q110 110 124 116 Q124 96 140 94 Q134 110 150 116 Q152 98 166 96 Q160 112 176 126 Q184 96 160 88 L96 88 Q72 96 80 126 Z" fill="url(#g86)" stroke="#1B1036" stroke-width="8" stroke-linejoin="round" stroke-linecap="round" paint-order="stroke" /><path d="M68 92 Q64 30 128 26 Q192 30 188 92 Q128 80 68 92 Z" fill="url(#g87)" stroke="#1B1036" stroke-width="9" stroke-linejoin="round" stroke-linecap="round" paint-order="stroke" /><path d="M68 84 Q128 70 188 84 L188 94 Q128 80 68 94 Z" fill="#16131F" stroke="#1B1036" stroke-width="5" stroke-linejoin="round" stroke-linecap="round" paint-order="stroke" /><path d="M30 98 Q128 66 226 98 Q236 110 216 112 Q128 86 40 112 Q20 110 30 98 Z" fill="url(#g88)" stroke="#1B1036" stroke-width="9" stroke-linejoin="round" stroke-linecap="round" paint-order="stroke" /><path d="M86 40 Q100 32 118 32" fill="none" stroke="#FFFFFF" stroke-width="7" stroke-linecap="round" opacity="0.9"/></svg>
