<svg xmlns="http://www.w3.org/2000/svg" width="256" height="256" viewBox="0 0 256 256"><defs><linearGradient id="g56" x1="0" y1="0" x2="0" y2="1"><stop offset="0" stop-color="#9CFF8E" stop-opacity="1"/><stop offset="0.5" stop-color="#46C95F" stop-opacity="1"/><stop offset="1" stop-color="#1E8F3E" stop-opacity="1"/></linearGradient><linearGradient id="g57" x1="0" y1="0" x2="0" y2="1"><stop offset="0" stop-color="#FFFFFF" stop-opacity="0.8"/><stop offset="1" stop-color="#FFFFFF" stop-opacity="0"/></linearGradient></defs><path d="M100 60 Q60 110 44 168 Q34 236 128 236 Q222 236 212 168 Q196 110 156 60 Z" fill="url(#g56)" stroke="#1B1036" stroke-width="11" stroke-linejoin="round" stroke-linecap="round" paint-order="stroke" /><path d="M92 40 Q128 58 164 40 L156 66 Q128 76 100 66 Z" fill="#177A33" stroke="#1B1036" stroke-width="9" stroke-linejoin="round" stroke-linecap="round" paint-order="stroke" /><path d="M150 128 Q128 114 110 126 Q98 142 126 150 Q156 158 146 176 Q130 192 104 178" fill="none" stroke="#1B1036" stroke-width="28" stroke-linecap="round" stroke-linejoin="round"/><path d="M150 128 Q128 114 110 126 Q98 142 126 150 Q156 158 146 176 Q130 192 104 178" fill="none" stroke="#FFFFFF" stroke-width="12" stroke-linecap="round" stroke-linejoin="round" /><path d="M128 106 L128 202" fill="none" stroke="#1B1036" stroke-width="26" stroke-linecap="round" stroke-linejoin="round"/><path d="M128 106 L128 202" fill="none" stroke="#FFFFFF" stroke-width="10" stroke-linecap="round" stroke-linejoin="round" /><path d="M66 150 Q76 104 104 80 Q92 120 88 176 Z" fill="url(#g57)"/></svg>
