<svg xmlns="http://www.w3.org/2000/svg" width="256" height="256" viewBox="0 0 256 256"><defs><linearGradient id="g1" x1="0" y1="0" x2="0" y2="1"><stop offset="0" stop-color="#FF8FB0" stop-opacity="1"/><stop offset="0.5" stop-color="#FF4F7E" stop-opacity="1"/><stop offset="1" stop-color="#D81B5A" stop-opacity="1"/></linearGradient><linearGradient id="g2" x1="0" y1="0" x2="0" y2="1"><stop offset="0" stop-color="#FFFFFF" stop-opacity="0.8"/><stop offset="1" stop-color="#FFFFFF" stop-opacity="0"/></linearGradient><linearGradient id="g3" x1="0" y1="0" x2="0" y2="1"><stop offset="0" stop-color="#FFF09A" stop-opacity="1"/><stop offset="0.5" stop-color="#FFD23F" stop-opacity="1"/><stop offset="1" stop-color="#FFA412" stop-opacity="1"/></linearGradient><linearGradient id="g4" x1="0" y1="0" x2="0" y2="1"><stop offset="0" stop-color="#FFFFFF" stop-opacity="0.9"/><stop offset="1" stop-color="#FFFFFF" stop-opacity="0"/></linearGradient></defs><path d="M88 100 Q88 34 128 34 Q168 34 168 100" fill="none" stroke="#1B1036" stroke-width="32" stroke-linecap="round" stroke-linejoin="round"/><path d="M88 100 Q88 34 128 34 Q168 34 168 100" fill="none" stroke="#FFF1C7" stroke-width="14" stroke-linecap="round" stroke-linejoin="round" /><path d="M50 86 L206 86 L222 220 Q223 236 207 236 L49 236 Q33 236 34 220 Z" fill="url(#g1)" stroke="#1B1036" stroke-width="10" stroke-linejoin="round" stroke-linecap="round" paint-order="stroke" /><path d="M50 86 L206 86 L208 106 L48 106 Z" fill="#A80F45" /><path d="M60 86 L196 86 L197 94 L59 94 Z" fill="#FFB3C9" opacity="0.7"/><path d="M58 112 L80 112 L70 222 L48 222 Z" fill="url(#g2)"/><circle cx="88" cy="100" r="7" fill="#1B1036"/><circle cx="168" cy="100" r="7" fill="#1B1036"/><path d="M118 128 L126 146 L146 148 L131 161 L135 180 L118 170 L101 180 L105 161 L90 148 L110 146 Z" fill="#FFFFFF" stroke="#1B1036" stroke-width="7" stroke-linejoin="round" stroke-linecap="round" paint-order="stroke" /><circle cx="186" cy="192" r="46" fill="url(#g3)" stroke="#1B1036" stroke-width="10"/><circle cx="186" cy="192" r="32" fill="none" stroke="#E08600" stroke-width="6"/><path d="M200 176 Q186 166 174 174 Q166 184 182 191 Q200 198 192 210 Q180 220 168 210" fill="none" stroke="#1B1036" stroke-width="17" stroke-linecap="round" stroke-linejoin="round"/><path d="M200 176 Q186 166 174 174 Q166 184 182 191 Q200 198 192 210 Q180 220 168 210" fill="none" stroke="#FFFFFF" stroke-width="7" stroke-linecap="round" stroke-linejoin="round" /><path d="M184 160 L184 224" fill="none" stroke="#1B1036" stroke-width="16" stroke-linecap="round" stroke-linejoin="round"/><path d="M184 160 L184 224" fill="none" stroke="#FFFFFF" stroke-width="6" stroke-linecap="round" stroke-linejoin="round" /><path d="M152 172 Q160 152 182 150 Q168 160 164 176 Z" fill="url(#g4)"/><path d="M40 32.400000000000006 Q43.5 48.5 59.599999999999994 52 Q43.5 55.5 40 71.6 Q36.5 55.5 20.400000000000002 52 Q36.5 48.5 40 32.400000000000006Z" fill="#FFFFFF" stroke="#1B1036" stroke-width="5.6" paint-order="stroke" stroke-linejoin="round"/><path d="M222 44 Q224.5 55.5 236 58 Q224.5 60.5 222 72 Q219.5 60.5 208 58 Q219.5 55.5 222 44Z" fill="#FFFFFF" stroke="#1B1036" stroke-width="4" paint-order="stroke" stroke-linejoin="round"/></svg>
