<svg xmlns="http://www.w3.org/2000/svg" width="128" height="128" viewBox="0 0 128 128"><defs></defs><path d="M24 17.6 L26.6 25.4 L34.4 28 L26.6 30.6 L24 38.4 L21.4 30.6 L13.6 28 L21.4 25.4 Z" fill="#FFFFFF"/><path d="M92 14.4 L93.4 18.6 L97.6 20 L93.4 21.4 L92 25.6 L90.6 21.4 L86.4 20 L90.6 18.6 Z" fill="#FFFFFF"/><path d="M70 62 L72 68 L78 70 L72 72 L70 78 L68 72 L62 70 L68 68 Z" fill="#FFFFFF"/><path d="M110 90.4 L112.4 97.6 L119.6 100 L112.4 102.4 L110 109.6 L107.6 102.4 L100.4 100 L107.6 97.6 Z" fill="#FFFFFF"/><path d="M30 97.6 L31.6 102.4 L36.4 104 L31.6 105.6 L30 110.4 L28.4 105.6 L23.6 104 L28.4 102.4 Z" fill="#FFFFFF"/><circle cx="56" cy="40" r="2" fill="#FFF"/><circle cx="100" cy="60" r="2.5" fill="#FFF"/><circle cx="16" cy="70" r="2" fill="#FFF"/><circle cx="70" cy="116" r="2" fill="#FFF"/></svg>
